<svg width="6" height="10" viewBox="0 0 6 10" fill="none" xmlns="http://www.w3.org/2000/svg">
<path d="M1.88846 5L5.76115 8.71104C5.83588 8.7802 5.89548 8.86292 5.93648 8.95439C5.97748 9.04586 5.99907 9.14424 5.99997 9.24378C6.00087 9.34333 5.98108 9.44205 5.94174 9.53418C5.9024 9.62632 5.84431 9.71002 5.77085 9.78042C5.69739 9.85081 5.61004 9.90648 5.51389 9.94417C5.41774 9.98187 5.31472 10.0008 5.21084 9.99997C5.10696 9.99911 5.0043 9.97842 4.90884 9.93913C4.81339 9.89984 4.72706 9.84273 4.65489 9.77112L0.229066 5.53004C0.0823948 5.38945 2.49591e-07 5.19879 2.5828e-07 5C2.6697e-07 4.8012 0.0823949 4.61055 0.229066 4.46996L4.65489 0.228876C4.72706 0.157272 4.81339 0.100157 4.90884 0.0608661C5.0043 0.0215748 5.10696 0.00089329 5.21084 2.82719e-05C5.31472 -0.000836746 5.41774 0.0181321 5.51389 0.0558279C5.61004 0.0935238 5.69739 0.149192 5.77085 0.219584C5.84431 0.289975 5.9024 0.373681 5.94174 0.465817C5.98108 0.557953 6.00087 0.656674 5.99997 0.75622C5.99907 0.855765 5.97749 0.954141 5.93648 1.04561C5.89548 1.13708 5.83588 1.2198 5.76115 1.28896L1.88846 5Z" fill="#003366"/>
</svg>
