<svg width="20" height="20" viewBox="0 0 20 20" fill="none" xmlns="http://www.w3.org/2000/svg">
<path d="M4.023 15.5215C4.873 14.8908 5.799 14.3927 6.801 14.0272C7.80283 13.6619 8.86917 13.4792 10 13.4792C11.1308 13.4792 12.1972 13.6619 13.199 14.0272C14.201 14.3927 15.127 14.8908 15.977 15.5215C16.5987 14.8382 17.0912 14.0472 17.4548 13.1485C17.8183 12.2498 18 11.2767 18 10.2292C18 8.01258 17.2208 6.12508 15.6625 4.56675C14.1042 3.00841 12.2167 2.22925 10 2.22925C7.78333 2.22925 5.89583 3.00841 4.3375 4.56675C2.77917 6.12508 2 8.01258 2 10.2292C2 11.2767 2.18175 12.2498 2.54525 13.1485C2.90875 14.0472 3.40133 14.8382 4.023 15.5215ZM10.0003 10.9792C9.08725 10.9792 8.31733 10.6659 7.6905 10.0392C7.0635 9.41241 6.75 8.6425 6.75 7.7295C6.75 6.8165 7.06333 6.04658 7.69 5.41975C8.31683 4.79275 9.08675 4.47925 9.99975 4.47925C10.9128 4.47925 11.6827 4.79258 12.3095 5.41925C12.9365 6.04608 13.25 6.816 13.25 7.729C13.25 8.642 12.9367 9.41191 12.31 10.0387C11.6832 10.6657 10.9132 10.9792 10.0003 10.9792ZM10 19.7292C8.68083 19.7292 7.44333 19.4812 6.2875 18.985C5.13167 18.4888 4.12625 17.8132 3.27125 16.958C2.41608 16.103 1.74042 15.0976 1.24425 13.9417C0.748083 12.7859 0.5 11.5484 0.5 10.2292C0.5 8.91008 0.748083 7.67258 1.24425 6.51675C1.74042 5.36091 2.41608 4.3555 3.27125 3.5005C4.12625 2.64533 5.13167 1.96967 6.2875 1.4735C7.44333 0.977332 8.68083 0.729248 10 0.729248C11.3192 0.729248 12.5567 0.977332 13.7125 1.4735C14.8683 1.96967 15.8738 2.64533 16.7288 3.5005C17.5839 4.3555 18.2596 5.36091 18.7558 6.51675C19.2519 7.67258 19.5 8.91008 19.5 10.2292C19.5 11.5484 19.2519 12.7859 18.7558 13.9417C18.2596 15.0976 17.5839 16.103 16.7288 16.958C15.8738 17.8132 14.8683 18.4888 13.7125 18.985C12.5567 19.4812 11.3192 19.7292 10 19.7292ZM10 18.2292C10.9025 18.2292 11.7727 18.0841 12.6105 17.7937C13.4483 17.5032 14.1923 17.0972 14.8422 16.5755C14.1923 16.0728 13.458 15.6812 12.6395 15.4005C11.8208 15.1197 10.941 14.9792 10 14.9792C9.059 14.9792 8.17758 15.118 7.35575 15.3955C6.53392 15.6732 5.80125 16.0665 5.15775 16.5755C5.80775 17.0972 6.55167 17.5032 7.3895 17.7937C8.22733 18.0841 9.0975 18.2292 10 18.2292ZM10 9.47925C10.4975 9.47925 10.9135 9.31191 11.248 8.97725C11.5827 8.64275 11.75 8.22675 11.75 7.72925C11.75 7.23175 11.5827 6.81575 11.248 6.48125C10.9135 6.14658 10.4975 5.97925 10 5.97925C9.5025 5.97925 9.0865 6.14658 8.752 6.48125C8.41733 6.81575 8.25 7.23175 8.25 7.72925C8.25 8.22675 8.41733 8.64275 8.752 8.97725C9.0865 9.31191 9.5025 9.47925 10 9.47925Z" fill="#4B647E"/>
</svg>
