<svg width="14" height="18" viewBox="0 0 14 18" fill="none" xmlns="http://www.w3.org/2000/svg">
<path d="M0.904 17.2292C0.647833 17.2292 0.433167 17.1426 0.26 16.9692C0.0866667 16.7961 0 16.5814 0 16.3252V1.13325C0 0.877081 0.0866667 0.662415 0.26 0.489249C0.433167 0.315915 0.647833 0.229248 0.904 0.229248H12.1345C12.3907 0.229248 12.6053 0.315915 12.7785 0.489249C12.9518 0.662415 13.0385 0.877081 13.0385 1.13325V16.3252C13.0385 16.5814 12.9518 16.7961 12.7785 16.9692C12.6053 17.1426 12.3907 17.2292 12.1345 17.2292H7.84625V13.2677H5.19225V17.2292H0.904ZM1.5 15.7292H3.69225V11.7677H9.34625V15.7292H11.5385V1.72925H1.5V15.7292ZM3.69225 9.5755H5.423V7.84475H3.69225V9.5755ZM3.69225 5.65225H5.423V3.9215H3.69225V5.65225ZM7.6155 9.5755H9.34625V7.84475H7.6155V9.5755ZM7.6155 5.65225H9.34625V3.9215H7.6155V5.65225Z" fill="#4B647E"/>
</svg>
