<svg width="18" height="17" viewBox="0 0 18 17" fill="none" xmlns="http://www.w3.org/2000/svg">
<path d="M0.99975 16.9793C0.787083 16.9793 0.609 16.9073 0.4655 16.7635C0.321833 16.6198 0.25 16.4418 0.25 16.2293V15.335C0.25 15.1225 0.321917 14.9444 0.46575 14.8008C0.609583 14.6569 0.78775 14.585 1.00025 14.585C1.21292 14.585 1.391 14.6569 1.5345 14.8008C1.67817 14.9444 1.75 15.1225 1.75 15.335V16.2293C1.75 16.4418 1.67808 16.6198 1.53425 16.7635C1.39042 16.9073 1.21225 16.9793 0.99975 16.9793ZM4.99975 16.9793C4.78708 16.9793 4.609 16.9073 4.4655 16.7635C4.32183 16.6198 4.25 16.4418 4.25 16.2293V10.835C4.25 10.6225 4.32192 10.4444 4.46575 10.3008C4.60958 10.1569 4.78775 10.085 5.00025 10.085C5.21292 10.085 5.391 10.1569 5.5345 10.3008C5.67817 10.4444 5.75 10.6225 5.75 10.835V16.2293C5.75 16.4418 5.67808 16.6198 5.53425 16.7635C5.39042 16.9073 5.21225 16.9793 4.99975 16.9793ZM8.99975 16.9793C8.78708 16.9793 8.609 16.9073 8.4655 16.7635C8.32183 16.6198 8.25 16.4418 8.25 16.2293V12.835C8.25 12.6225 8.32192 12.4444 8.46575 12.3008C8.60958 12.1569 8.78775 12.085 9.00025 12.085C9.21292 12.085 9.391 12.1569 9.5345 12.3008C9.67817 12.4444 9.75 12.6225 9.75 12.835V16.2293C9.75 16.4418 9.67808 16.6198 9.53425 16.7635C9.39042 16.9073 9.21225 16.9793 8.99975 16.9793ZM12.9998 16.9793C12.7871 16.9793 12.609 16.9073 12.4655 16.7635C12.3218 16.6198 12.25 16.4418 12.25 16.2293V11.335C12.25 11.1225 12.3219 10.9444 12.4658 10.8008C12.6096 10.6569 12.7878 10.585 13.0003 10.585C13.2129 10.585 13.391 10.6569 13.5345 10.8008C13.6782 10.9444 13.75 11.1225 13.75 11.335V16.2293C13.75 16.4418 13.6781 16.6198 13.5343 16.7635C13.3904 16.9073 13.2122 16.9793 12.9998 16.9793ZM16.9998 16.9793C16.7871 16.9793 16.609 16.9073 16.4655 16.7635C16.3218 16.6198 16.25 16.4418 16.25 16.2293V7.33501C16.25 7.12251 16.3219 6.94442 16.4657 6.80076C16.6096 6.65692 16.7878 6.58501 17.0002 6.58501C17.2129 6.58501 17.391 6.65692 17.5345 6.80076C17.6782 6.94442 17.75 7.12251 17.75 7.33501V16.2293C17.75 16.4418 17.6781 16.6198 17.5343 16.7635C17.3904 16.9073 17.2122 16.9793 16.9998 16.9793ZM11 7.93501C10.7653 7.93501 10.5385 7.89001 10.3195 7.80001C10.1005 7.71001 9.90042 7.58259 9.71925 7.41776L7.22125 4.91951C7.16358 4.86184 7.08983 4.83301 7 4.83301C6.91017 4.83301 6.83642 4.86184 6.77875 4.91951L1.527 10.1715C1.37817 10.3202 1.19992 10.3936 0.99225 10.3918C0.784583 10.3898 0.606417 10.3113 0.45775 10.1563C0.31925 10.0074 0.253083 9.83042 0.25925 9.62526C0.265417 9.41992 0.336667 9.24884 0.473 9.11201L5.71925 3.86576C5.90042 3.68592 6.1005 3.55476 6.3195 3.47226C6.5385 3.38976 6.76533 3.34851 7 3.34851C7.23467 3.34851 7.46525 3.38976 7.69175 3.47226C7.91825 3.55476 8.11458 3.68592 8.28075 3.86576L10.7788 6.36401C10.8364 6.42167 10.9102 6.45051 11 6.45051C11.0898 6.45051 11.1636 6.42167 11.2212 6.36401L16.473 1.11201C16.6218 0.96334 16.8001 0.889924 17.0077 0.891757C17.2154 0.893757 17.3936 0.972257 17.5422 1.12726C17.6807 1.27609 17.7469 1.45309 17.7408 1.65826C17.7346 1.86359 17.6633 2.03467 17.527 2.17151L12.2807 7.41776C12.1146 7.58259 11.9183 7.71001 11.6917 7.80001C11.4653 7.89001 11.2347 7.93501 11 7.93501Z" fill="#4B647E"/>
</svg>
