<svg width="22" height="16" viewBox="0 0 22 16" fill="none" xmlns="http://www.w3.org/2000/svg">
<path d="M0.797852 13.3138C0.797852 12.7984 0.930852 12.3385 1.19685 11.934C1.46285 11.5295 1.8181 11.2148 2.2626 10.99C3.21294 10.5252 4.16852 10.1668 5.12935 9.91476C6.09035 9.66293 7.14644 9.53701 8.2976 9.53701C9.44894 9.53701 10.505 9.66293 11.4659 9.91476C12.4269 10.1668 13.3825 10.5252 14.3329 10.99C14.7774 11.2148 15.1326 11.5295 15.3986 11.934C15.6646 12.3385 15.7976 12.7984 15.7976 13.3138V14.0178C15.7976 14.4203 15.6499 14.7741 15.3544 15.0793C15.0589 15.3844 14.7002 15.537 14.2784 15.537H2.31685C1.89518 15.537 1.5366 15.3893 1.2411 15.0938C0.945602 14.7981 0.797852 14.4394 0.797852 14.0178V13.3138ZM19.6824 15.537H17.4111C17.5368 15.3075 17.6326 15.0633 17.6986 14.8043C17.7646 14.5453 17.7976 14.2831 17.7976 14.0178V13.1908C17.7976 12.5344 17.6369 11.9088 17.3156 11.314C16.9941 10.7193 16.5381 10.2091 15.9476 9.78326C16.6181 9.88326 17.2547 10.038 17.8574 10.2475C18.4599 10.4572 19.0349 10.7049 19.5824 10.9908C20.099 11.2664 20.498 11.5913 20.7794 11.9655C21.0607 12.3395 21.2014 12.7479 21.2014 13.1908V14.0178C21.2014 14.4394 21.0536 14.7981 20.7581 15.0938C20.4626 15.3893 20.104 15.537 19.6824 15.537ZM8.2976 7.92151C7.3351 7.92151 6.51119 7.57884 5.82585 6.89351C5.14052 6.20801 4.79785 5.38401 4.79785 4.42151C4.79785 3.45901 5.14052 2.63509 5.82585 1.94976C6.51119 1.26426 7.3351 0.921509 8.2976 0.921509C9.2601 0.921509 10.0841 1.26426 10.7696 1.94976C11.4549 2.63509 11.7976 3.45901 11.7976 4.42151C11.7976 5.38401 11.4549 6.20801 10.7696 6.89351C10.0841 7.57884 9.2601 7.92151 8.2976 7.92151ZM16.9321 4.42151C16.9321 5.38401 16.5894 6.20801 15.9041 6.89351C15.2188 7.57884 14.3949 7.92151 13.4324 7.92151C13.3195 7.92151 13.1759 7.90868 13.0016 7.88301C12.8271 7.85734 12.6835 7.82917 12.5709 7.79851C12.9652 7.32434 13.2683 6.79834 13.4801 6.22051C13.6918 5.64268 13.7976 5.04268 13.7976 4.42051C13.7976 3.79818 13.6896 3.20042 13.4736 2.62726C13.2576 2.05426 12.9567 1.52676 12.5709 1.04476C12.7144 0.993425 12.8579 0.960092 13.0016 0.944759C13.1451 0.929259 13.2887 0.921509 13.4324 0.921509C14.3949 0.921509 15.2188 1.26426 15.9041 1.94976C16.5894 2.63509 16.9321 3.45901 16.9321 4.42151ZM2.2976 14.037H14.2976V13.3138C14.2976 13.1049 14.2454 12.9191 14.1409 12.7563C14.0365 12.5934 13.8709 12.4511 13.6439 12.3293C12.8209 11.9049 11.9734 11.5834 11.1016 11.3648C10.2298 11.1463 9.2951 11.037 8.2976 11.037C7.30027 11.037 6.36569 11.1463 5.49385 11.3648C4.62202 11.5834 3.7746 11.9049 2.9516 12.3293C2.7246 12.4511 2.55885 12.5934 2.45435 12.7563C2.34985 12.9191 2.2976 13.1049 2.2976 13.3138V14.037ZM8.2976 6.42151C8.8476 6.42151 9.31844 6.22568 9.7101 5.83401C10.1018 5.44234 10.2976 4.97151 10.2976 4.42151C10.2976 3.87151 10.1018 3.40068 9.7101 3.00901C9.31844 2.61734 8.8476 2.42151 8.2976 2.42151C7.7476 2.42151 7.27677 2.61734 6.8851 3.00901C6.49344 3.40068 6.2976 3.87151 6.2976 4.42151C6.2976 4.97151 6.49344 5.44234 6.8851 5.83401C7.27677 6.22568 7.7476 6.42151 8.2976 6.42151Z" fill="#4B647E"/>
</svg>
