<svg width="16" height="20" viewBox="0 0 16 20" fill="none" xmlns="http://www.w3.org/2000/svg">
<path d="M5 15.9792H11C11.2128 15.9792 11.391 15.9074 11.5345 15.7637C11.6782 15.6202 11.75 15.4421 11.75 15.2292C11.75 15.0164 11.6782 14.8382 11.5345 14.6947C11.391 14.5511 11.2128 14.4792 11 14.4792H5C4.78717 14.4792 4.609 14.5511 4.4655 14.6947C4.32183 14.8382 4.25 15.0164 4.25 15.2292C4.25 15.4421 4.32183 15.6202 4.4655 15.7637C4.609 15.9074 4.78717 15.9792 5 15.9792ZM5 11.9792H11C11.2128 11.9792 11.391 11.9074 11.5345 11.7637C11.6782 11.6202 11.75 11.4421 11.75 11.2292C11.75 11.0164 11.6782 10.8382 11.5345 10.6947C11.391 10.5511 11.2128 10.4792 11 10.4792H5C4.78717 10.4792 4.609 10.5511 4.4655 10.6947C4.32183 10.8382 4.25 11.0164 4.25 11.2292C4.25 11.4421 4.32183 11.6202 4.4655 11.7637C4.609 11.9074 4.78717 11.9792 5 11.9792ZM2.30775 19.7292C1.80258 19.7292 1.375 19.5542 1.025 19.2042C0.675 18.8542 0.5 18.4267 0.5 17.9215V2.537C0.5 2.03183 0.675 1.60425 1.025 1.25425C1.375 0.904248 1.80258 0.729248 2.30775 0.729248H9.502C9.743 0.729248 9.97475 0.776081 10.1973 0.869748C10.4196 0.963248 10.6128 1.09208 10.777 1.25625L14.973 5.45225C15.1372 5.61641 15.266 5.80966 15.3595 6.032C15.4532 6.2545 15.5 6.48625 15.5 6.72725V17.9215C15.5 18.4267 15.325 18.8542 14.975 19.2042C14.625 19.5542 14.1974 19.7292 13.6923 19.7292H2.30775ZM9.5 5.82525V2.22925H2.30775C2.23075 2.22925 2.16025 2.26133 2.09625 2.3255C2.03208 2.3895 2 2.46 2 2.537V17.9215C2 17.9985 2.03208 18.069 2.09625 18.133C2.16025 18.1972 2.23075 18.2292 2.30775 18.2292H13.6923C13.7692 18.2292 13.8398 18.1972 13.9038 18.133C13.9679 18.069 14 17.9985 14 17.9215V6.72925H10.404C10.1462 6.72925 9.93108 6.643 9.75875 6.4705C9.58625 6.29817 9.5 6.08308 9.5 5.82525Z" fill="#4B647E"/>
</svg>
