<svg width="18" height="18" viewBox="0 0 18 18" fill="none" xmlns="http://www.w3.org/2000/svg">
<path d="M2.30775 17.7292C1.80258 17.7292 1.375 17.5542 1.025 17.2042C0.675 16.8542 0.5 16.4267 0.5 15.9215V2.537C0.5 2.03183 0.675 1.60425 1.025 1.25425C1.375 0.904248 1.80258 0.729248 2.30775 0.729248H15.6923C16.1974 0.729248 16.625 0.904248 16.975 1.25425C17.325 1.60425 17.5 2.03183 17.5 2.537V15.9215C17.5 16.4267 17.325 16.8542 16.975 17.2042C16.625 17.5542 16.1974 17.7292 15.6923 17.7292H2.30775ZM2.30775 16.2292H15.6923C15.7692 16.2292 15.8398 16.1972 15.9038 16.133C15.9679 16.069 16 15.9985 16 15.9215V2.537C16 2.46 15.9679 2.3895 15.9038 2.3255C15.8398 2.26133 15.7692 2.22925 15.6923 2.22925H2.30775C2.23075 2.22925 2.16025 2.26133 2.09625 2.3255C2.03208 2.3895 2 2.46 2 2.537V15.9215C2 15.9985 2.03208 16.069 2.09625 16.133C2.16025 16.1972 2.23075 16.2292 2.30775 16.2292ZM5 13.9792H10C10.2128 13.9792 10.391 13.9074 10.5345 13.7637C10.6782 13.6202 10.75 13.4421 10.75 13.2292C10.75 13.0164 10.6782 12.8382 10.5345 12.6947C10.391 12.5511 10.2128 12.4792 10 12.4792H5C4.78717 12.4792 4.609 12.5511 4.4655 12.6947C4.32183 12.8382 4.25 13.0164 4.25 13.2292C4.25 13.4421 4.32183 13.6202 4.4655 13.7637C4.609 13.9074 4.78717 13.9792 5 13.9792ZM5 9.97925H13C13.2128 9.97925 13.391 9.90742 13.5345 9.76375C13.6782 9.62025 13.75 9.44208 13.75 9.22925C13.75 9.01641 13.6782 8.83825 13.5345 8.69475C13.391 8.55108 13.2128 8.47925 13 8.47925H5C4.78717 8.47925 4.609 8.55108 4.4655 8.69475C4.32183 8.83825 4.25 9.01641 4.25 9.22925C4.25 9.44208 4.32183 9.62025 4.4655 9.76375C4.609 9.90742 4.78717 9.97925 5 9.97925ZM5 5.97925H13C13.2128 5.97925 13.391 5.90741 13.5345 5.76375C13.6782 5.62025 13.75 5.44208 13.75 5.22925C13.75 5.01641 13.6782 4.83825 13.5345 4.69475C13.391 4.55108 13.2128 4.47925 13 4.47925H5C4.78717 4.47925 4.609 4.55108 4.4655 4.69475C4.32183 4.83825 4.25 5.01641 4.25 5.22925C4.25 5.44208 4.32183 5.62025 4.4655 5.76375C4.609 5.90741 4.78717 5.97925 5 5.97925Z" fill="#4B647E"/>
</svg>
