<svg width="18" height="20" viewBox="0 0 18 20" fill="none" xmlns="http://www.w3.org/2000/svg">
<path d="M3 19.7292C2.30133 19.7292 1.71 19.4872 1.226 19.0032C0.742 18.5192 0.5 17.9279 0.5 17.2292V16.1522C0.5 15.6552 0.677 15.2297 1.031 14.8757C1.385 14.5217 1.81058 14.3447 2.30775 14.3447H3.5V2.537C3.5 2.03983 3.677 1.61425 4.031 1.26025C4.385 0.906248 4.81058 0.729248 5.30775 0.729248H15.6923C16.1894 0.729248 16.615 0.906248 16.969 1.26025C17.323 1.61425 17.5 2.03983 17.5 2.537V17.2292C17.5 17.9279 17.258 18.5192 16.774 19.0032C16.29 19.4872 15.6987 19.7292 15 19.7292H3ZM15 18.2292C15.2833 18.2292 15.5208 18.1334 15.7125 17.9417C15.9042 17.7501 16 17.5126 16 17.2292V2.537C16 2.44716 15.9712 2.37342 15.9135 2.31575C15.8558 2.25808 15.7821 2.22925 15.6923 2.22925H5.30775C5.21792 2.22925 5.14417 2.25808 5.0865 2.31575C5.02883 2.37342 5 2.44716 5 2.537V14.3447H12.1923C12.6894 14.3447 13.115 14.5217 13.469 14.8757C13.823 15.2297 14 15.6552 14 16.1522V17.2292C14 17.5126 14.0958 17.7501 14.2875 17.9417C14.4792 18.1334 14.7167 18.2292 15 18.2292ZM6.94225 6.9215C6.72975 6.9215 6.55167 6.84958 6.408 6.70575C6.26417 6.56191 6.19225 6.38375 6.19225 6.17125C6.19225 5.95858 6.26417 5.7805 6.408 5.637C6.55167 5.49333 6.72975 5.4215 6.94225 5.4215H14.0577C14.2703 5.4215 14.4483 5.49341 14.592 5.63725C14.7358 5.78108 14.8077 5.95933 14.8077 6.172C14.8077 6.3845 14.7358 6.56258 14.592 6.70625C14.4483 6.84975 14.2703 6.9215 14.0577 6.9215H6.94225ZM6.94225 9.80625C6.72975 9.80625 6.55167 9.73433 6.408 9.5905C6.26417 9.44666 6.19225 9.26841 6.19225 9.05575C6.19225 8.84325 6.26417 8.66516 6.408 8.5215C6.55167 8.378 6.72975 8.30625 6.94225 8.30625H14.0577C14.2703 8.30625 14.4483 8.37817 14.592 8.522C14.7358 8.66567 14.8077 8.84383 14.8077 9.0565C14.8077 9.26917 14.7358 9.44725 14.592 9.59075C14.4483 9.73442 14.2703 9.80625 14.0577 9.80625H6.94225ZM3 18.2292H12.5V16.1522C12.5 16.0626 12.4712 15.9889 12.4135 15.9312C12.3558 15.8734 12.2821 15.8445 12.1923 15.8445H2.30775C2.21792 15.8445 2.14417 15.8734 2.0865 15.9312C2.02883 15.9889 2 16.0626 2 16.1522V17.2292C2 17.5126 2.09583 17.7501 2.2875 17.9417C2.47917 18.1334 2.71667 18.2292 3 18.2292ZM3 18.2292H2H12.5H3Z" fill="#4B647E"/>
</svg>
