<svg width="20" height="18" viewBox="0 0 20 18" fill="none" xmlns="http://www.w3.org/2000/svg">
<path d="M12.6146 4.14754H15.2301C16.0962 4.14754 16.7976 4.85022 16.7976 5.71996V10.4417C18.0258 10.9555 18.8891 12.1717 18.8891 13.5902C18.8891 15.4734 17.3675 17 15.4904 17C14.1792 17 13.0414 16.255 12.4746 15.1639H2.67887C1.8127 15.1639 1.11133 14.4613 1.11133 13.5915V5.71996C1.11133 4.85204 1.81461 4.14754 2.67887 4.14754H5.29433V2.57267C5.29433 1.70413 5.99489 1 6.86036 1H11.0486C11.9131 1 12.6146 1.70572 12.6146 2.57267V4.14754ZM12.6146 5.19672H5.29433V14.1148H12.1317C12.1054 13.9438 12.0917 13.7686 12.0917 13.5902C12.0917 12.9218 12.2834 12.2983 12.6146 11.7721V5.19672ZM13.6603 10.7164C14.1886 10.377 14.8166 10.1803 15.4904 10.1803C15.5784 10.1803 15.6656 10.1837 15.7519 10.1903V5.71996C15.7519 5.43 15.519 5.19672 15.2301 5.19672H13.6603V10.7164ZM15.4904 15.9508C16.7899 15.9508 17.8434 14.8939 17.8434 13.5902C17.8434 12.2864 16.7899 11.2295 15.4904 11.2295C14.1909 11.2295 13.1375 12.2864 13.1375 13.5902C13.1375 14.8939 14.1909 15.9508 15.4904 15.9508ZM4.24858 5.19672H2.67887C2.3918 5.19672 2.15708 5.43184 2.15708 5.71996V13.5915C2.15708 13.8815 2.38993 14.1148 2.67887 14.1148H4.24858V5.19672ZM6.34009 4.14754H11.5688V2.57267C11.5688 2.28453 11.3349 2.04918 11.0486 2.04918H6.86036C6.57287 2.04918 6.34009 2.28315 6.34009 2.57267V4.14754ZM14.9675 13.0656V12.8033C14.9675 12.5136 15.2016 12.2787 15.4904 12.2787C15.7792 12.2787 16.0133 12.5136 16.0133 12.8033V13.0656H16.2747C16.5635 13.0656 16.7976 13.3004 16.7976 13.5902C16.7976 13.8799 16.5635 14.1148 16.2747 14.1148H16.0133V14.377C16.0133 14.6668 15.7792 14.9016 15.4904 14.9016C15.2016 14.9016 14.9675 14.6668 14.9675 14.377V14.1148H14.7061C14.4173 14.1148 14.1832 13.8799 14.1832 13.5902C14.1832 13.3004 14.4173 13.0656 14.7061 13.0656H14.9675Z" fill="#4B647E" stroke="#4B647E" stroke-width="0.3"/>
</svg>
