<svg width="16" height="17" viewBox="0 0 16 17" fill="none" xmlns="http://www.w3.org/2000/svg">
<path d="M2 15.2292H5.34625V10.1907C5.34625 9.93474 5.43283 9.72007 5.606 9.54674C5.77933 9.37357 5.994 9.28699 6.25 9.28699H9.75C10.006 9.28699 10.2207 9.37357 10.394 9.54674C10.5672 9.72007 10.6538 9.93474 10.6538 10.1907V15.2292H14V6.38299C14 6.33182 13.9888 6.28541 13.9663 6.24374C13.9439 6.20207 13.9135 6.16515 13.875 6.13299L8.18275 1.85424C8.13142 1.8094 8.0705 1.78699 8 1.78699C7.9295 1.78699 7.86858 1.8094 7.81725 1.85424L2.125 6.13299C2.0865 6.16515 2.05608 6.20207 2.03375 6.24374C2.01125 6.28541 2 6.33182 2 6.38299V15.2292ZM0.5 15.2292V6.38299C0.5 6.09682 0.564 5.82574 0.692 5.56974C0.820166 5.31357 0.997167 5.10265 1.223 4.93699L6.9155 0.648488C7.23133 0.407488 7.59233 0.286987 7.9985 0.286987C8.40467 0.286987 8.76667 0.407488 9.0845 0.648488L14.777 4.93699C15.0028 5.10265 15.1798 5.31357 15.308 5.56974C15.436 5.82574 15.5 6.09682 15.5 6.38299V15.2292C15.5 15.6382 15.3523 15.9905 15.0568 16.286C14.7613 16.5815 14.409 16.7292 14 16.7292H10.0577C9.80158 16.7292 9.58692 16.6426 9.41375 16.4692C9.24042 16.2961 9.15375 16.0814 9.15375 15.8252V10.787H6.84625V15.8252C6.84625 16.0814 6.75958 16.2961 6.58625 16.4692C6.41308 16.6426 6.19842 16.7292 5.94225 16.7292H2C1.591 16.7292 1.23875 16.5815 0.94325 16.286C0.64775 15.9905 0.5 15.6382 0.5 15.2292Z" fill="white"/>
</svg>
