<svg width="16" height="16" viewBox="0 0 16 16" fill="none" xmlns="http://www.w3.org/2000/svg">
<path d="M14.7056 0.619019H11.3722C10.9779 0.619019 10.6579 0.938971 10.6579 1.3333C10.6579 1.72764 10.9779 2.04759 11.3722 2.04759H12.9812L7.97099 7.05783C7.69196 7.33685 7.69196 7.78885 7.97099 8.06788C8.1105 8.20739 8.2928 8.27714 8.47601 8.27714C8.65923 8.27714 8.84153 8.20739 8.98103 8.06788L13.9913 3.05764V4.66664C13.9913 5.06097 14.3112 5.38092 14.7056 5.38092C15.0999 5.38092 15.4198 5.06097 15.4198 4.66664V1.3333C15.4198 0.938971 15.0999 0.619019 14.7056 0.619019Z" fill="#555555"/>
<path d="M13.7144 15.42C14.1087 15.42 14.4287 15.1 14.4287 14.7057V8.51524C14.4287 8.1209 14.1087 7.80095 13.7144 7.80095C13.32 7.80095 13.0001 8.1209 13.0001 8.51524V13.9914H2.04771V3.03905H9.012C9.40633 3.03905 9.72628 2.71909 9.72628 2.32476C9.72628 1.93043 9.40633 1.61047 9.012 1.61047H1.33343C0.939093 1.61047 0.619141 1.93043 0.619141 2.32476V14.7057C0.619141 15.1 0.939093 15.42 1.33343 15.42H13.7144Z" fill="#555555"/>
</svg>
