<svg width="30" height="30" viewBox="0 0 30 30" fill="none" xmlns="http://www.w3.org/2000/svg">
<path d="M6.95804 23.0729C6.6985 23.0729 6.48098 22.9851 6.30551 22.8096C6.12983 22.634 6.04199 22.4163 6.04199 22.1565C6.04199 21.897 6.12983 21.6794 6.30551 21.504C6.48098 21.3287 6.6985 21.2411 6.95804 21.2411H8.24998V12.1273C8.24998 10.4847 8.75697 9.03233 9.77093 7.77021C10.7847 6.5081 12.0863 5.70085 13.6758 5.34848V4.58754C13.6758 4.16351 13.8241 3.803 14.1207 3.50599C14.4172 3.20919 14.7774 3.06079 15.201 3.06079C15.6248 3.06079 15.9854 3.20919 16.2828 3.50599C16.5805 3.803 16.7293 4.16351 16.7293 4.58754V5.34848C18.3187 5.70085 19.6203 6.5081 20.6341 7.77021C21.6481 9.03233 22.155 10.4847 22.155 12.1273V21.2411H23.447C23.7065 21.2411 23.924 21.3288 24.0995 21.5043C24.2752 21.6799 24.363 21.8977 24.363 22.1574C24.363 22.417 24.2752 22.6345 24.0995 22.8099C23.924 22.9852 23.7065 23.0729 23.447 23.0729H6.95804ZM15.2004 26.5022C14.5927 26.5022 14.0732 26.2861 13.6419 25.8537C13.2103 25.4213 12.9945 24.9015 12.9945 24.2943H17.4105C17.4105 24.9035 17.1941 25.4239 16.7613 25.8552C16.3285 26.2866 15.8082 26.5022 15.2004 26.5022ZM10.0821 21.2411H20.3229V12.1273C20.3229 10.7133 19.8231 9.50644 18.8234 8.50672C17.8234 7.5068 16.6165 7.00684 15.2025 7.00684C13.7885 7.00684 12.5816 7.5068 11.5817 8.50672C10.5819 9.50644 10.0821 10.7133 10.0821 12.1273V21.2411Z" fill="black"/>
</svg>
