<svg width="31" height="30" viewBox="0 0 31 30" fill="none" xmlns="http://www.w3.org/2000/svg">
<path fill-rule="evenodd" clip-rule="evenodd" d="M15.9702 7.35305L7.53063 12.2427L7.54537 21.9964L15.9997 26.8604L24.4393 21.9708L24.4245 12.2171L15.9702 7.35305ZM16.6072 5.80179C16.2112 5.57398 15.7238 5.57472 15.3285 5.80373L6.50569 10.9154C6.11042 11.1444 5.86734 11.5669 5.86803 12.0237L5.88344 22.2203C5.88413 22.6772 6.12848 23.0989 6.52445 23.3267L15.3627 28.4117C15.7587 28.6395 16.2461 28.6388 16.6414 28.4098L25.4642 23.2981C25.8595 23.0691 26.1025 22.6466 26.1019 22.1898L26.0865 11.9932C26.0858 11.5363 25.8414 11.1146 25.4454 10.8868L16.6072 5.80179Z" fill="black"/>
<circle cx="16.188" cy="17.1984" r="3.35886" stroke="black" stroke-width="1.8321"/>
</svg>
