<svg width="22" height="22" viewBox="0 0 22 22" fill="none" xmlns="http://www.w3.org/2000/svg">
<path d="M8.1723 15.4157C6.08656 15.4157 4.32021 14.6923 2.87325 13.2456C1.4265 11.7986 0.703125 10.0323 0.703125 7.94654C0.703125 5.86079 1.4265 4.09444 2.87325 2.64748C4.32021 1.20073 6.08656 0.477356 8.1723 0.477356C10.2581 0.477356 12.0244 1.20073 13.4714 2.64748C14.9181 4.09444 15.6415 5.86079 15.6415 7.94654C15.6415 8.81882 15.4951 9.65192 15.2024 10.4458C14.9095 11.2397 14.5187 11.9302 14.0301 12.5173L21.0581 19.5453C21.2273 19.7142 21.3138 19.9268 21.3176 20.1828C21.3215 20.4389 21.235 20.6554 21.0581 20.8323C20.8812 21.0092 20.6666 21.0977 20.4144 21.0977C20.1624 21.0977 19.9479 21.0092 19.771 20.8323L12.7431 13.8044C12.1324 14.3086 11.4301 14.7032 10.6362 14.9882C9.84227 15.2732 9.02098 15.4157 8.1723 15.4157ZM8.1723 13.5839C9.74608 13.5839 11.079 13.0377 12.1712 11.9454C13.2635 10.8533 13.8097 9.52031 13.8097 7.94654C13.8097 6.37276 13.2635 5.0398 12.1712 3.94766C11.079 2.85532 9.74608 2.30915 8.1723 2.30915C6.59853 2.30915 5.26557 2.85532 4.17343 3.94766C3.08109 5.0398 2.53492 6.37276 2.53492 7.94654C2.53492 9.52031 3.08109 10.8533 4.17343 11.9454C5.26557 13.0377 6.59853 13.5839 8.1723 13.5839Z" fill="#4B647E"/>
</svg>
